<?xml version="1.0" encoding="utf-8"?>
<!-- Generator: Adobe Illustrator 18.1.0, SVG Export Plug-In . SVG Version: 6.00 Build 0)  -->
<!DOCTYPE svg PUBLIC "-//W3C//DTD SVG 1.1//EN" "http://www.w3.org/Graphics/SVG/1.1/DTD/svg11.dtd">
<svg version="1.1" id="Layer_1" xmlns="http://www.w3.org/2000/svg" xmlns:xlink="http://www.w3.org/1999/xlink" x="0px" y="0px"
	 viewBox="0 0 40 40" enable-background="new 0 0 40 40" xml:space="preserve">
<g>
	<path fill="#FFFFFF" d="M20,24l-8.2-8c-0.6-0.6-1.6-0.6-2.2,0c-0.6,0.6-0.6,1.6,0,2.2l9.3,9.2c0.6,0.6,1.6,0.6,2.2,0l9.1-9.3
		c0.6-0.6,0.6-1.6,0-2.2c-0.6-0.6-1.6-0.6-2.2,0L20,24z M36.9,19.9c0,9.3-7.4,17-16.8,17c-9.3,0.1-17-7.4-17-16.8
		c0-9.3,7.4-17,16.8-17C29.2,3,36.8,10.5,36.9,19.9 M19.8,0C8.8,0.1-0.1,9.1,0,20.2c0.1,11,9.1,19.9,20.2,19.8
		c11-0.1,19.9-9.1,19.8-20.2C39.9,8.8,30.9-0.1,19.8,0"/>
</g>
</svg>
